<svg width="21" height="21" viewBox="0 0 21 21" fill="none" xmlns="http://www.w3.org/2000/svg">
<g clip-path="url(#clip0_2_31)">
<path fill-rule="evenodd" clip-rule="evenodd" d="M5.83796 3.97328C5.53257 3.97328 5.28271 3.73443 5.28271 3.4425V3.29843H1.1898L1.17802 5.77039H19.8817L19.8935 3.29843H16.2487V3.44629C16.2487 3.73822 15.9989 3.97707 15.6935 3.97707V3.97328C15.3881 3.97328 15.1382 3.73443 15.1382 3.4425V3.29843H6.3932V3.44629C6.3932 3.73822 6.14334 3.97707 5.83796 3.97707V3.97328ZM15.1382 2.24066H6.3932V0.530782C6.3932 0.238852 6.14334 0 5.83796 0C5.53257 0 5.28271 0.238852 5.28271 0.530782V2.24066H0.916147C0.456091 2.24066 0.0832861 2.59704 0.0832861 3.03304L0 20.2038C0 20.6436 0.372805 21 0.832861 21H20.0878C20.5479 21 20.9207 20.6436 20.9207 20.2076L21.004 3.03683C21.004 2.59704 20.6312 2.24066 20.1711 2.24066H16.2487V0.530782C16.2487 0.238852 15.9989 0 15.6935 0C15.3881 0 15.1382 0.238852 15.1382 0.530782V2.24066ZM19.8142 19.9384H1.11048L1.17296 6.83195H19.8766L19.8142 19.9384ZM5.71897 14.0961C5.25494 14.0961 4.87817 13.7359 4.87817 13.2923C4.87817 12.8487 5.25494 12.4886 5.71897 12.4886C6.18299 12.4886 6.55976 12.8487 6.55976 13.2923C6.55976 13.7359 6.18299 14.0961 5.71897 14.0961ZM6.55976 9.9901C6.55976 10.434 6.18332 10.7939 5.71897 10.7939C5.25461 10.7939 4.87817 10.434 4.87817 9.9901C4.87817 9.54619 5.25461 9.18634 5.71897 9.18634C6.18332 9.18634 6.55976 9.54619 6.55976 9.9901ZM5.71897 17.3983C5.25494 17.3983 4.87817 17.0381 4.87817 16.5945C4.87817 16.151 5.25494 15.7908 5.71897 15.7908C6.18299 15.7908 6.55976 16.151 6.55976 16.5945C6.55976 17.0381 6.18299 17.3983 5.71897 17.3983ZM11.6085 13.2923C11.6085 13.7362 11.2321 14.0961 10.7677 14.0961C10.3034 14.0961 9.92694 13.7362 9.92694 13.2923C9.92694 12.8484 10.3034 12.4886 10.7677 12.4886C11.2321 12.4886 11.6085 12.8484 11.6085 13.2923ZM10.7677 10.7939C11.2321 10.7939 11.6085 10.434 11.6085 9.9901C11.6085 9.54619 11.2321 9.18634 10.7677 9.18634C10.3034 9.18634 9.92694 9.54619 9.92694 9.9901C9.92694 10.434 10.3034 10.7939 10.7677 10.7939ZM9.92694 16.6059C9.92694 17.0495 10.3037 17.4097 10.7677 17.4097C11.2318 17.4097 11.6085 17.0495 11.6085 16.6059C11.6085 16.1623 11.2318 15.8022 10.7677 15.8022C10.3037 15.8022 9.92694 16.1623 9.92694 16.6059ZM15.8164 14.0961C16.2808 14.0961 16.6572 13.7362 16.6572 13.2923C16.6572 12.8484 16.2808 12.4886 15.8164 12.4886C15.3521 12.4886 14.9756 12.8484 14.9756 13.2923C14.9756 13.7362 15.3521 14.0961 15.8164 14.0961ZM16.6572 9.9901C16.6572 10.434 16.2808 10.7939 15.8164 10.7939C15.3521 10.7939 14.9756 10.434 14.9756 9.9901C14.9756 9.54619 15.3521 9.18634 15.8164 9.18634C16.2808 9.18634 16.6572 9.54619 16.6572 9.9901Z" fill="#4D4C4C"/>
</g>
<defs>
<clipPath id="clip0_2_31">
<rect width="21" height="21" fill="white"/>
</clipPath>
</defs>
</svg>
