<svg width="23" height="21" viewBox="0 0 23 21" fill="none" xmlns="http://www.w3.org/2000/svg">
<g clip-path="url(#clip0_7_51)">
<path d="M22.9577 20.4496L19.218 13.0776C19.1526 12.9485 19.0179 12.8688 18.8756 12.8688H12.7274C12.5158 12.8688 12.3426 13.0396 12.3426 13.2484V13.4002H10.1842V13.2484C10.1842 13.0396 10.0111 12.8688 9.79947 12.8688H4.34764C4.20529 12.8688 4.07447 12.9447 4.00907 13.07L0.046203 20.442C-0.0884574 20.6963 0.0962197 21 0.384778 21H22.6153C22.9 21 23.0885 20.7039 22.9577 20.4496ZM11.5039 16.9648C9.58786 16.9648 8.03349 16.3308 8.03349 15.545C8.03349 14.7592 9.58786 14.1253 11.5039 14.1253C13.4199 14.1253 14.9743 14.7592 14.9743 15.545C14.9743 16.3308 13.4199 16.9648 11.5039 16.9648Z" fill="#4D4C4C"/>
<path d="M11.9616 0.0113883C11.8462 0.0037961 11.7269 0 11.6115 0C11.4961 0 11.3768 0 11.2614 0.0113883C7.2062 0.24295 4.93621 4.7679 7.02537 8.20336L11.3537 15.3172C11.4692 15.5071 11.75 15.5071 11.8655 15.3172L16.1938 8.20336C18.2868 4.7679 16.0168 0.24295 11.9616 0.0113883ZM11.6115 6.69631C10.5265 6.69631 9.64933 5.82701 9.64933 4.7603C9.64933 3.6936 10.5304 2.8243 11.6115 2.8243C12.6927 2.8243 13.5737 3.6936 13.5737 4.7603C13.5737 5.82701 12.6927 6.69631 11.6115 6.69631Z" fill="#4D4C4C"/>
</g>
<defs>
<clipPath id="clip0_7_51">
<rect width="23" height="21" fill="white"/>
</clipPath>
</defs>
</svg>
